<svg xmlns="http://www.w3.org/2000/svg" version="1.1" xmlns:xlink="http://www.w3.org/1999/xlink" xmlns:svgjs="http://svgjs.dev/svgjs" width="1000" height="750" viewBox="0 0 1000 750"><rect width="1000" height="750" fill="#ffffff"></rect><g transform="matrix(0.2979591836734694,0,0,0.2979591836734694,351.47600073085755,83.00000102254307)"><svg viewBox="0 0 102 200" data-background-color="#ffffff" preserveAspectRatio="xMidYMid meet" height="1960" width="1000" xmlns="http://www.w3.org/2000/svg" xmlns:xlink="http://www.w3.org/1999/xlink"><g id="tight-bounds" transform="matrix(1,0,0,1,-0.15596244197439546,3.501859850985056e-7)"><svg viewBox="0 0 102.31192488394882 200" height="200" width="102.31192488394882"><g><svg viewBox="0 0 262.1572246976448 512.4666063999999" height="200" width="102.31192488394882"><g><rect width="262.1572246976448" height="18.036206399999998" x="0" y="247.21519999999998" fill="#f20c62" opacity="1" stroke-width="0" stroke="transparent" fill-opacity="1" class="rect-o-0" data-fill-palette-color="primary" rx="1%" id="o-0" data-palette-color="#f20c62"></rect></g><g transform="matrix(1,0,0,1,0.6521323997453692,312.46660639999993)"><svg viewBox="0 0 260.85295989815404 199.99999999999997" height="199.99999999999997" width="260.85295989815404"><g id="textblocktransform"><svg viewBox="0 0 260.85295989815404 199.99999999999997" height="199.99999999999997" width="260.85295989815404" id="textblock"><g><svg viewBox="0 0 260.85295989815404 199.99999999999997" height="199.99999999999997" width="260.85295989815404"><g transform="matrix(1,0,0,1,0,0)"><svg width="260.85295989815404" viewBox="3.740000009536743 -37.869998931884766 50.019996643066406 38.36000061035156" height="199.99999999999997" data-palette-color="#f20c62"><path d="M3.74-2.39L5.49-5.76Q10.52-2.95 15.6-2.95L15.6-2.95Q19.82-2.95 20.56-5.96L20.56-5.96Q20.8-6.98 20.8-8.46 20.8-9.94 20.46-10.75 20.12-11.57 19.31-11.98 18.51-12.38 17.18-12.57 15.84-12.77 13.79-13.12 11.74-13.48 10.03-13.92 8.33-14.36 7.13-15.19L7.13-15.19Q4.59-16.97 4.69-21.19L4.69-21.19 4.69-21.8Q4.69-26.25 7.62-28.13L7.62-28.13Q10.45-29.98 16.97-29.39L16.97-29.39Q21.41-28.98 24.05-27.86L24.05-27.86 22.9-24.17Q19.97-25.42 15.87-25.98L15.87-25.98Q14.6-26.15 13.49-26.15 12.38-26.15 11.47-25.98 10.57-25.81 9.96-25.34L9.96-25.34Q8.79-24.39 8.74-21.8L8.74-21.8Q8.67-18.75 10.45-17.92L10.45-17.92Q12.16-17.11 14.5-16.81 16.85-16.5 18.33-16.27 19.82-16.04 21.04-15.65 22.27-15.26 23.14-14.4L23.14-14.4Q24.98-12.67 24.93-8.37L24.93-8.37Q24.8-0.88 18.68 0.17L18.68 0.17Q16.82 0.49 14.97 0.49 13.11 0.49 11.56 0.26 10.01 0.02 8.59-0.39L8.59-0.39Q5.91-1.15 3.74-2.39L3.74-2.39ZM48.8-29.08L48.8-29.08Q48.8-34.3 43.06-34.3L43.06-34.3Q40.06-34.3 36.37-32.62L36.37-32.62Q35.32-32.13 34.54-31.59L34.54-31.59 32.93-34.99Q35.52-36.99 40.57-37.67L40.57-37.67Q41.99-37.87 43.98-37.87 45.97-37.87 47.9-37.24 49.83-36.62 51.02-35.5L51.02-35.5Q53.29-33.4 53.29-29.54L53.29-29.54Q53.29-25.2 50.19-20.02L50.19-20.02Q47.63-15.8 44.06-11.38L44.06-11.38 37.6-3.56 53.76-3.56 53.76 0 32.71 0 32.42-3.15Q34.25-5.13 36.15-7.42L36.15-7.42Q42.62-15.5 45.68-20.12L45.68-20.12Q48.8-25.02 48.8-29.08Z" opacity="1" transform="matrix(1,0,0,1,0,0)" fill="#f20c62" class="wordmark-text-0" data-fill-palette-color="primary" id="text-0"></path></svg></g></svg></g></svg></g></svg></g><g transform="matrix(1,0,0,1,61.754868515108754,0)"><svg viewBox="0 0 138.64748766742727 199.99999999999997" height="199.99999999999997" width="138.64748766742727"><g><svg xmlns="http://www.w3.org/2000/svg" xmlns:xlink="http://www.w3.org/1999/xlink" version="1.1" x="0" y="0" viewBox="17.660003662109375 2.6790008544921875 66.01699829101562 95.22999572753906" enable-background="new 0 0 100 100" xml:space="preserve" height="199.99999999999997" width="138.64748766742727" class="icon-icon-0" data-fill-palette-color="accent" id="icon-0"><g fill="#da163b" data-fill-palette-color="accent"><path d="M64.63 38.958c-0.129-0.738-0.302-1.586-0.548-2.437-1.645 1.956-2.703 4.424-2.874 7.197-0.081 1.304-0.177 2.746 0.266 4.001 0.174 0.495 0.849 2.315 1.744 1.984 0.722-0.267 1.069-1.016 1.236-1.699 0.388-1.591 0.3-3.215 0.3-4.841C64.754 41.774 64.871 40.332 64.63 38.958z" fill="#da163b" data-fill-palette-color="accent"></path><path d="M51.001 35.25c-2.105 2.029-3.295 4.703-3.352 7.733-0.034 1.789-0.124 7.657 3.026 6.49 2.74-1.015 1.866-5.894 1.641-8.148C52.109 39.257 51.865 37.11 51.001 35.25z" fill="#da163b" data-fill-palette-color="accent"></path><path d="M75.928 56.971c4.998-5.917 7.749-13.476 7.749-21.285 0-18.2-14.809-33.007-33.009-33.007-18.2 0-33.008 14.807-33.008 33.007 0 7.787 2.629 15.35 7.638 21.273C27.201 59.306 32 66.306 32 70.452v4.359c0 0.434-0.711 1.116-0.641 1.854 0.104 1.103 1.101 1.929 2.186 1.929 0.067 0 0.169-0.004 0.237-0.01l12.637-1.188 21.309-2.007c0.493-0.047 0.928-0.263 1.26-0.577 0.46-0.434 0.734-1.063 0.671-1.741C69.608 72.534 69 72.071 69 71.729v-1.277C69 66.334 74.012 59.311 75.928 56.971zM65.872 34.772c1.054 2.929 1.077 6.48 1.077 9.26 0 2.133 0.151 5.042-1.455 6.737-1.104 1.163-2.97 1.626-4.277 0.473-3.411-3.013-2.656-9.543-0.844-13.228 0.709-1.438 1.658-2.714 2.775-3.814-0.779-1.4-1.926-2.46-3.663-2.487-2.369-0.038-4.724 0.8-6.701 2.112 1.127 2.36 1.509 4.888 1.727 7.498 0.194 2.346 0.535 5.084-0.188 7.368-1.189 3.767-7.043 4.149-8.217 0.188-1.367-4.615-0.911-10.885 2.593-14.48 0.331-0.339 0.7-0.68 1.093-1.018-0.144-0.163-0.274-0.333-0.436-0.486-1.341-1.277-2.891-2.395-4.843-1.706-1.475 0.52-2.708 1.482-3.709 2.673-0.041 0.049-0.08 0.102-0.12 0.152 0.212 0.316 0.414 0.643 0.592 1 1.532 3.068 2.299 6.462 2.263 9.895-0.025 2.356-0.383 4.878-2.314 6.454-1.709 1.394-3.948 0.95-5.247-0.723-1.623-2.092-1.667-5.573-1.481-8.071 0.222-2.975 1.823-5.975 3.425-8.487-0.297-0.329-0.615-0.647-0.976-0.943-1.094-0.899-2.025-1.059-3.283-1.51-1.323-0.474-0.752-2.595 0.583-2.117 1.378 0.494 2.512 0.646 3.692 1.615 0.459 0.377 0.883 0.764 1.289 1.162 1.586-1.839 3.909-3.476 6.26-3.481 2.313-0.005 4.646 1.322 6.149 3.175 3.099-2.074 7.1-3.461 10.336-1.881 1.27 0.619 2.211 1.534 2.915 2.628 2.551-1.842 5.674-2.903 8.866-2.964 1.416-0.027 1.413 2.168 0 2.195C70.777 32.016 68.035 33.051 65.872 34.772z" fill="#da163b" data-fill-palette-color="accent"></path><path d="M39.274 35.979c-1.089 1.732-1.96 3.687-2.382 5.578-0.437 1.957-0.706 6.296 0.922 7.896 2.419 2.378 3.509-2.583 3.525-4.12 0.03-2.885-0.341-5.974-1.647-8.588C39.559 36.48 39.417 36.229 39.274 35.979z" fill="#da163b" data-fill-palette-color="accent"></path><path d="M67.337 76.782l-33.919 3.195c-1.17 0.11-2.03 1.148-1.919 2.319 0.104 1.102 1.031 1.928 2.116 1.928 0.067 0 0.134-0.003 0.203-0.009l33.919-3.195c1.171-0.111 2.031-1.148 1.921-2.319S68.5 76.669 67.337 76.782z" fill="#da163b" data-fill-palette-color="accent"></path><path d="M67.337 82.412l-33.919 3.196c-1.17 0.11-2.03 1.148-1.919 2.318 0.104 1.103 1.031 1.929 2.116 1.929 0.067 0 0.134-0.003 0.203-0.01l33.919-3.194c1.171-0.111 2.031-1.149 1.921-2.319C69.547 83.16 68.5 82.297 67.337 82.412z" fill="#da163b" data-fill-palette-color="accent"></path><path d="M36.815 92h0.037C37.066 94 39 93.958 42 94.23V95h0.078c0.101 2 3.903 2.909 8.589 2.909 4.655 0 8.436-1.448 8.583-3.144l0.02-1.029C62.276 93.464 64.268 94 64.481 92H65v-3.557l-27.719 2.074L36.815 92z" fill="#da163b" data-fill-palette-color="accent"></path></g></svg></g></svg></g><g></g></svg></g><defs></defs></svg><rect width="102.31192488394882" height="200" fill="none" stroke="none" visibility="hidden"></rect></g></svg></g></svg>